<?xml version="1.0" encoding="UTF-8"?>
<svg width="1024" height="1024" shape-rendering="crispEdges" version="1.1" xmlns="http://www.w3.org/2000/svg">
	<desc>qrcode-generator 4.1.8 by magiclen.org</desc>
	<rect width="1024" height="1024" fill="#FFF"/>
	<path d="M33 33h29v29H33V33M62 33h29v29H62V33M91 33h29v29H91V33M120 33h29v29H120V33M149 33h29v29H149V33M178 33h29v29H178V33M207 33h29v29H207V33M323 33h29v29H323V33M381 33h29v29H381V33M497 33h29v29H497V33M584 33h29v29H584V33M613 33h29v29H613V33M642 33h29v29H642V33M671 33h29v29H671V33M700 33h29v29H700V33M787 33h29v29H787V33M816 33h29v29H816V33M845 33h29v29H845V33M874 33h29v29H874V33M903 33h29v29H903V33M932 33h29v29H932V33M961 33h29v29H961V33M33 62h29v29H33V62M207 62h29v29H207V62M265 62h29v29H265V62M323 62h29v29H323V62M468 62h29v29H468V62M526 62h29v29H526V62M555 62h29v29H555V62M613 62h29v29H613V62M787 62h29v29H787V62M961 62h29v29H961V62M33 91h29v29H33V91M91 91h29v29H91V91M120 91h29v29H120V91M149 91h29v29H149V91M207 91h29v29H207V91M381 91h29v29H381V91M439 91h29v29H439V91M497 91h29v29H497V91M642 91h29v29H642V91M671 91h29v29H671V91M729 91h29v29H729V91M787 91h29v29H787V91M845 91h29v29H845V91M874 91h29v29H874V91M903 91h29v29H903V91M961 91h29v29H961V91M33 120h29v29H33V120M91 120h29v29H91V120M120 120h29v29H120V120M149 120h29v29H149V120M207 120h29v29H207V120M265 120h29v29H265V120M294 120h29v29H294V120M323 120h29v29H323V120M381 120h29v29H381V120M410 120h29v29H410V120M439 120h29v29H439V120M468 120h29v29H468V120M526 120h29v29H526V120M671 120h29v29H671V120M729 120h29v29H729V120M787 120h29v29H787V120M845 120h29v29H845V120M874 120h29v29H874V120M903 120h29v29H903V120M961 120h29v29H961V120M33 149h29v29H33V149M91 149h29v29H91V149M120 149h29v29H120V149M149 149h29v29H149V149M207 149h29v29H207V149M294 149h29v29H294V149M439 149h29v29H439V149M497 149h29v29H497V149M555 149h29v29H555V149M584 149h29v29H584V149M613 149h29v29H613V149M642 149h29v29H642V149M700 149h29v29H700V149M787 149h29v29H787V149M845 149h29v29H845V149M874 149h29v29H874V149M903 149h29v29H903V149M961 149h29v29H961V149M33 178h29v29H33V178M207 178h29v29H207V178M265 178h29v29H265V178M294 178h29v29H294V178M352 178h29v29H352V178M381 178h29v29H381V178M410 178h29v29H410V178M468 178h29v29H468V178M642 178h29v29H642V178M671 178h29v29H671V178M729 178h29v29H729V178M787 178h29v29H787V178M961 178h29v29H961V178M33 207h29v29H33V207M62 207h29v29H62V207M91 207h29v29H91V207M120 207h29v29H120V207M149 207h29v29H149V207M178 207h29v29H178V207M207 207h29v29H207V207M265 207h29v29H265V207M323 207h29v29H323V207M381 207h29v29H381V207M439 207h29v29H439V207M497 207h29v29H497V207M555 207h29v29H555V207M613 207h29v29H613V207M671 207h29v29H671V207M729 207h29v29H729V207M787 207h29v29H787V207M816 207h29v29H816V207M845 207h29v29H845V207M874 207h29v29H874V207M903 207h29v29H903V207M932 207h29v29H932V207M961 207h29v29H961V207M294 236h29v29H294V236M323 236h29v29H323V236M352 236h29v29H352V236M439 236h29v29H439V236M468 236h29v29H468V236M497 236h29v29H497V236M555 236h29v29H555V236M584 236h29v29H584V236M613 236h29v29H613V236M642 236h29v29H642V236M700 236h29v29H700V236M33 265h29v29H33V265M62 265h29v29H62V265M91 265h29v29H91V265M120 265h29v29H120V265M149 265h29v29H149V265M207 265h29v29H207V265M236 265h29v29H236V265M265 265h29v29H265V265M294 265h29v29H294V265M352 265h29v29H352V265M410 265h29v29H410V265M439 265h29v29H439V265M468 265h29v29H468V265M526 265h29v29H526V265M671 265h29v29H671V265M729 265h29v29H729V265M758 265h29v29H758V265M816 265h29v29H816V265M874 265h29v29H874V265M932 265h29v29H932V265M33 294h29v29H33V294M62 294h29v29H62V294M120 294h29v29H120V294M149 294h29v29H149V294M236 294h29v29H236V294M265 294h29v29H265V294M323 294h29v29H323V294M381 294h29v29H381V294M497 294h29v29H497V294M555 294h29v29H555V294M584 294h29v29H584V294M613 294h29v29H613V294M642 294h29v29H642V294M700 294h29v29H700V294M758 294h29v29H758V294M787 294h29v29H787V294M874 294h29v29H874V294M903 294h29v29H903V294M961 294h29v29H961V294M33 323h29v29H33V323M91 323h29v29H91V323M207 323h29v29H207V323M236 323h29v29H236V323M323 323h29v29H323V323M439 323h29v29H439V323M468 323h29v29H468V323M497 323h29v29H497V323M526 323h29v29H526V323M671 323h29v29H671V323M729 323h29v29H729V323M903 323h29v29H903V323M932 323h29v29H932V323M33 352h29v29H33V352M91 352h29v29H91V352M149 352h29v29H149V352M178 352h29v29H178V352M236 352h29v29H236V352M381 352h29v29H381V352M555 352h29v29H555V352M613 352h29v29H613V352M642 352h29v29H642V352M758 352h29v29H758V352M787 352h29v29H787V352M816 352h29v29H816V352M874 352h29v29H874V352M903 352h29v29H903V352M33 381h29v29H33V381M62 381h29v29H62V381M91 381h29v29H91V381M120 381h29v29H120V381M149 381h29v29H149V381M178 381h29v29H178V381M207 381h29v29H207V381M236 381h29v29H236V381M294 381h29v29H294V381M323 381h29v29H323V381M381 381h29v29H381V381M410 381h29v29H410V381M439 381h29v29H439V381M468 381h29v29H468V381M497 381h29v29H497V381M526 381h29v29H526V381M671 381h29v29H671V381M729 381h29v29H729V381M758 381h29v29H758V381M816 381h29v29H816V381M845 381h29v29H845V381M932 381h29v29H932V381M33 410h29v29H33V410M91 410h29v29H91V410M149 410h29v29H149V410M265 410h29v29H265V410M497 410h29v29H497V410M555 410h29v29H555V410M584 410h29v29H584V410M613 410h29v29H613V410M642 410h29v29H642V410M700 410h29v29H700V410M787 410h29v29H787V410M874 410h29v29H874V410M903 410h29v29H903V410M961 410h29v29H961V410M33 439h29v29H33V439M62 439h29v29H62V439M178 439h29v29H178V439M207 439h29v29H207V439M236 439h29v29H236V439M294 439h29v29H294V439M352 439h29v29H352V439M381 439h29v29H381V439M410 439h29v29H410V439M439 439h29v29H439V439M468 439h29v29H468V439M497 439h29v29H497V439M555 439h29v29H555V439M613 439h29v29H613V439M642 439h29v29H642V439M758 439h29v29H758V439M816 439h29v29H816V439M845 439h29v29H845V439M932 439h29v29H932V439M33 468h29v29H33V468M149 468h29v29H149V468M236 468h29v29H236V468M294 468h29v29H294V468M323 468h29v29H323V468M352 468h29v29H352V468M468 468h29v29H468V468M584 468h29v29H584V468M642 468h29v29H642V468M671 468h29v29H671V468M700 468h29v29H700V468M729 468h29v29H729V468M874 468h29v29H874V468M903 468h29v29H903V468M932 468h29v29H932V468M961 468h29v29H961V468M33 497h29v29H33V497M62 497h29v29H62V497M91 497h29v29H91V497M178 497h29v29H178V497M207 497h29v29H207V497M352 497h29v29H352V497M468 497h29v29H468V497M526 497h29v29H526V497M613 497h29v29H613V497M671 497h29v29H671V497M758 497h29v29H758V497M816 497h29v29H816V497M845 497h29v29H845V497M62 526h29v29H62V526M91 526h29v29H91V526M149 526h29v29H149V526M178 526h29v29H178V526M236 526h29v29H236V526M381 526h29v29H381V526M410 526h29v29H410V526M497 526h29v29H497V526M584 526h29v29H584V526M613 526h29v29H613V526M642 526h29v29H642V526M671 526h29v29H671V526M700 526h29v29H700V526M787 526h29v29H787V526M903 526h29v29H903V526M932 526h29v29H932V526M961 526h29v29H961V526M91 555h29v29H91V555M120 555h29v29H120V555M207 555h29v29H207V555M410 555h29v29H410V555M439 555h29v29H439V555M468 555h29v29H468V555M526 555h29v29H526V555M555 555h29v29H555V555M613 555h29v29H613V555M758 555h29v29H758V555M816 555h29v29H816V555M874 555h29v29H874V555M903 555h29v29H903V555M932 555h29v29H932V555M33 584h29v29H33V584M120 584h29v29H120V584M149 584h29v29H149V584M178 584h29v29H178V584M381 584h29v29H381V584M410 584h29v29H410V584M497 584h29v29H497V584M642 584h29v29H642V584M671 584h29v29H671V584M729 584h29v29H729V584M787 584h29v29H787V584M874 584h29v29H874V584M903 584h29v29H903V584M932 584h29v29H932V584M961 584h29v29H961V584M62 613h29v29H62V613M91 613h29v29H91V613M207 613h29v29H207V613M236 613h29v29H236V613M265 613h29v29H265V613M294 613h29v29H294V613M381 613h29v29H381V613M439 613h29v29H439V613M468 613h29v29H468V613M526 613h29v29H526V613M671 613h29v29H671V613M729 613h29v29H729V613M758 613h29v29H758V613M816 613h29v29H816V613M845 613h29v29H845V613M874 613h29v29H874V613M33 642h29v29H33V642M62 642h29v29H62V642M120 642h29v29H120V642M236 642h29v29H236V642M323 642h29v29H323V642M497 642h29v29H497V642M555 642h29v29H555V642M584 642h29v29H584V642M613 642h29v29H613V642M642 642h29v29H642V642M700 642h29v29H700V642M787 642h29v29H787V642M903 642h29v29H903V642M932 642h29v29H932V642M961 642h29v29H961V642M33 671h29v29H33V671M91 671h29v29H91V671M149 671h29v29H149V671M178 671h29v29H178V671M207 671h29v29H207V671M265 671h29v29H265V671M352 671h29v29H352V671M381 671h29v29H381V671M468 671h29v29H468V671M642 671h29v29H642V671M671 671h29v29H671V671M729 671h29v29H729V671M845 671h29v29H845V671M874 671h29v29H874V671M932 671h29v29H932V671M33 700h29v29H33V700M149 700h29v29H149V700M178 700h29v29H178V700M352 700h29v29H352V700M439 700h29v29H439V700M468 700h29v29H468V700M497 700h29v29H497V700M555 700h29v29H555V700M584 700h29v29H584V700M613 700h29v29H613V700M642 700h29v29H642V700M700 700h29v29H700V700M758 700h29v29H758V700M816 700h29v29H816V700M874 700h29v29H874V700M903 700h29v29H903V700M932 700h29v29H932V700M33 729h29v29H33V729M91 729h29v29H91V729M149 729h29v29H149V729M178 729h29v29H178V729M207 729h29v29H207V729M265 729h29v29H265V729M294 729h29v29H294V729M323 729h29v29H323V729M352 729h29v29H352V729M468 729h29v29H468V729M526 729h29v29H526V729M671 729h29v29H671V729M729 729h29v29H729V729M758 729h29v29H758V729M787 729h29v29H787V729M816 729h29v29H816V729M845 729h29v29H845V729M265 758h29v29H265V758M381 758h29v29H381V758M410 758h29v29H410V758M439 758h29v29H439V758M497 758h29v29H497V758M555 758h29v29H555V758M584 758h29v29H584V758M613 758h29v29H613V758M642 758h29v29H642V758M729 758h29v29H729V758M845 758h29v29H845V758M874 758h29v29H874V758M903 758h29v29H903V758M33 787h29v29H33V787M62 787h29v29H62V787M91 787h29v29H91V787M120 787h29v29H120V787M149 787h29v29H149V787M178 787h29v29H178V787M207 787h29v29H207V787M265 787h29v29H265V787M294 787h29v29H294V787M323 787h29v29H323V787M410 787h29v29H410V787M439 787h29v29H439V787M468 787h29v29H468V787M497 787h29v29H497V787M526 787h29v29H526V787M671 787h29v29H671V787M700 787h29v29H700V787M729 787h29v29H729V787M787 787h29v29H787V787M845 787h29v29H845V787M903 787h29v29H903V787M932 787h29v29H932V787M33 816h29v29H33V816M207 816h29v29H207V816M294 816h29v29H294V816M323 816h29v29H323V816M381 816h29v29H381V816M410 816h29v29H410V816M555 816h29v29H555V816M613 816h29v29H613V816M642 816h29v29H642V816M700 816h29v29H700V816M729 816h29v29H729V816M845 816h29v29H845V816M874 816h29v29H874V816M903 816h29v29H903V816M932 816h29v29H932V816M961 816h29v29H961V816M33 845h29v29H33V845M91 845h29v29H91V845M120 845h29v29H120V845M149 845h29v29H149V845M207 845h29v29H207V845M265 845h29v29H265V845M323 845h29v29H323V845M381 845h29v29H381V845M439 845h29v29H439V845M468 845h29v29H468V845M497 845h29v29H497V845M526 845h29v29H526V845M671 845h29v29H671V845M729 845h29v29H729V845M758 845h29v29H758V845M787 845h29v29H787V845M816 845h29v29H816V845M845 845h29v29H845V845M932 845h29v29H932V845M961 845h29v29H961V845M33 874h29v29H33V874M91 874h29v29H91V874M120 874h29v29H120V874M149 874h29v29H149V874M207 874h29v29H207V874M265 874h29v29H265V874M497 874h29v29H497V874M555 874h29v29H555V874M584 874h29v29H584V874M613 874h29v29H613V874M642 874h29v29H642V874M729 874h29v29H729V874M758 874h29v29H758V874M845 874h29v29H845V874M874 874h29v29H874V874M903 874h29v29H903V874M932 874h29v29H932V874M961 874h29v29H961V874M33 903h29v29H33V903M91 903h29v29H91V903M120 903h29v29H120V903M149 903h29v29H149V903M207 903h29v29H207V903M265 903h29v29H265V903M352 903h29v29H352V903M381 903h29v29H381V903M468 903h29v29H468V903M497 903h29v29H497V903M555 903h29v29H555V903M613 903h29v29H613V903M642 903h29v29H642V903M700 903h29v29H700V903M729 903h29v29H729V903M758 903h29v29H758V903M787 903h29v29H787V903M33 932h29v29H33V932M207 932h29v29H207V932M265 932h29v29H265V932M323 932h29v29H323V932M352 932h29v29H352V932M439 932h29v29H439V932M468 932h29v29H468V932M584 932h29v29H584V932M642 932h29v29H642V932M671 932h29v29H671V932M874 932h29v29H874V932M903 932h29v29H903V932M33 961h29v29H33V961M62 961h29v29H62V961M91 961h29v29H91V961M120 961h29v29H120V961M149 961h29v29H149V961M178 961h29v29H178V961M207 961h29v29H207V961M265 961h29v29H265V961M323 961h29v29H323V961M352 961h29v29H352V961M468 961h29v29H468V961M526 961h29v29H526V961M613 961h29v29H613V961M671 961h29v29H671V961M700 961h29v29H700V961M729 961h29v29H729V961M758 961h29v29H758V961M787 961h29v29H787V961M816 961h29v29H816V961M932 961h29v29H932V961"/>
</svg>